# One triangle per material in materials.mtl, triangle n at x = 2n.
mtllib materials.mtl

v 0 0 0
v 1 0 0
v 0 1 0
v 2 0 0
v 3 0 0
v 2 1 0
v 4 0 0
v 5 0 0
v 4 1 0
v 6 0 0
v 7 0 0
v 6 1 0
v 8 0 0
v 9 0 0
v 8 1 0
v 10 0 0
v 11 0 0
v 10 1 0
v 12 0 0
v 13 0 0
v 12 1 0
v 14 0 0
v 15 0 0
v 14 1 0
v 16 0 0
v 17 0 0
v 16 1 0

usemtl PlainDiffuse
f 1 2 3
usemtl Plastic
f 4 5 6
usemtl Emissive
f 7 8 9
usemtl Glass
f 10 11 12
usemtl Mirror
f 13 14 15
usemtl TrGlass
f 16 17 18
usemtl MatteOverride
f 19 20 21
usemtl OpaqueIllum7
f 22 23 24
usemtl TexturedPlastic
f 25 26 27
